#!OML:ASF E:\emotionWalksFemale\Project 1\Capture day 1\Session 1\Female1.ASF
:FULLY-SPECIFIED
:DEGREES
2183
root 9.53885 15.4784 -24.0112 -0.636951 -15.5834 -2.67184
lowerback 4.47376 1.89427 6.75328
upperback -6.33254 3.21288 1.01165
thorax -8.93326 1.14615 -3.08151
lowerneck -4.09374 2.26043 -1.78921
upperneck 7.5305 2.97644 2.35044
head 3.06276 1.51406 1.18901
rclavicle -5.06901e-014 1.15295e-014
rhumerus -41.3722 12.6989 -89.6203
rradius 32.0705
rwrist 18.4924
rhand -1.11327 -50.0784
rfingers 7.12502
rthumb 24.5236 -78.5281
lclavicle -5.06901e-014 1.15295e-014
lhumerus -52.1171 9.4621 74.3228
lradius 33.5949
lwrist -19.9584
lhand -6.27791 -30.8889
lfingers 7.12502
lthumb 19.5652 -1.85338
rfemur 25.0584 10.9219 30.5257
rtibia 7.59624
rfoot -0.0697005 -11.7431
rtoes -13.3174
lfemur -20.1221 -24.7812 -16.543
ltibia 21.971
lfoot -31.5561 32.9323
ltoes 34.1313
2184
root 9.5573 15.4971 -23.891 -0.754185 -15.4379 -2.42712
lowerback 4.29428 1.89004 6.68701
upperback -6.27495 3.17388 0.89497
thorax -8.76286 1.13519 -3.1551
lowerneck -4.29655 2.19022 -1.65936
upperneck 7.6607 2.88223 2.2467
head 3.151 1.46779 1.13533
rclavicle -1.88845e-015 6.36111e-015
rhumerus -41.458 12.2357 -89.2674
rradius 32.1585
rwrist 18.2172
rhand -1.26636 -49.9888
rfingers 7.12502
rthumb 24.3769 -78.4583
lclavicle -1.88845e-015 6.36111e-015
lhumerus -51.7221 9.41355 74.3071
lradius 33.2577
lwrist -20.5394
lhand -6.31613 -30.0798
lfingers 7.12502
lthumb 19.5284 -1.0405
rfemur 24.0712 10.525 29.9021
rtibia 10.1231
rfoot -0.000584145 -11.1873
rtoes -13.6361
lfemur -19.4796 -23.8827 -17.3517
ltibia 21.7769
lfoot -30.2275 32.2332
ltoes 34.2259
2185
root 9.57473 15.507 -23.7751 -0.94121 -15.2984 -2.22928
lowerback 4.4316 1.88295 6.36311
upperback -6.33562 3.15639 0.961902
thorax -8.92894 1.14339 -2.90964
lowerneck -4.32443 2.15277 -1.78033
upperneck 7.81763 2.83303 2.33087
head 3.20897 1.44296 1.18545
rclavicle -1.14301e-014 1.86858e-014
rhumerus -41.8044 11.8765 -88.7457
rradius 32.258
rwrist 18.1168
rhand -1.26442 -49.9908
rfingers 7.12502
rthumb 24.3787 -78.46
lclavicle -1.14301e-014 1.86858e-014
lhumerus -51.6078 9.34985 74.5312
lradius 33.074
lwrist -20.9331
lhand -5.80531 -29.506
lfingers 7.12502
lthumb 20.0195 -0.517259
rfemur 23.3305 10.0375 29.2924
rtibia 12.2309
rfoot 0.173629 -10.6428
rtoes -13.7893
lfemur -18.8075 -23.0991 -18.0868
ltibia 21.5789
lfoot -29.4494 31.4008
ltoes 35.2745
2186
root 9.59165 15.5176 -23.6576 -1.1022 -15.2308 -2.07032
lowerback 4.22877 1.85963 6.36766
upperback -6.22856 3.09654 0.873482
thorax -8.69121 1.12164 -2.98834
lowerneck -4.45467 2.14168 -1.86447
upperneck 7.92823 2.80386 2.59053
head 3.26893 1.43641 1.28889
rclavicle 1.03368e-014 -2.34566e-014
rhumerus -41.9012 11.4583 -88.4596
rradius 32.5262
rwrist 17.9319
rhand -0.71994 -50.6921
rfingers 7.12502
rthumb 24.9006 -79.0901
lclavicle 1.03368e-014 -2.34566e-014
lhumerus -51.4272 9.12668 74.6616
lradius 33.2429
lwrist -20.7314
lhand -5.08957 -28.9645
lfingers 7.12502
lthumb 20.7073 -0.0492275
rfemur 22.6024 9.591 28.6804
rtibia 14.2315
rfoot 0.380898 -10.1566
rtoes -13.5469
lfemur -18.0836 -22.4635 -18.7606
ltibia 21.2902
lfoot -28.2412 31.1496
ltoes 34.4559
2187
root 9.60769 15.5358 -23.538 -1.17706 -15.1638 -1.87801
lowerback 4.13732 1.87698 6.21377
upperback -6.28375 3.0986 0.829634
thorax -8.70084 1.12981 -2.9466
lowerneck -4.63956 2.05407 -1.8168
upperneck 8.26999 2.68208 2.57335
head 3.42669 1.37735 1.27992
rclavicle -1.37161e-014 -1.11319e-014
rhumerus -42.3044 11.1847 -88.2134
rradius 32.8776
rwrist 16.7721
rhand -1.25748 -50.4639
rfingers 7.12502
rthumb 24.3854 -78.9323
lclavicle -1.37161e-014 -1.11319e-014
lhumerus -51.4108 8.91937 74.8672
lradius 33.4689
lwrist -20.5856
lhand -4.27924 -27.9588
lfingers 7.12502
lthumb 21.4858 0.86958
rfemur 21.8721 9.17263 28.0281
rtibia 16.045
rfoot 1.153 -9.37275
rtoes -12.3546
lfemur -17.4408 -21.6674 -19.4588
ltibia 21.0056
lfoot -25.9917 31.4156
ltoes 30.1443
2188
root 9.6221 15.5555 -23.4273 -1.18311 -14.9054 -1.75818
lowerback 4.1369 1.83735 5.9992
upperback -6.4088 3.03355 0.834162
thorax -8.8526 1.10475 -2.81819
lowerneck -4.72771 1.96253 -1.75543
upperneck 8.63418 2.55373 2.53665
head 3.57499 1.31429 1.25982
rclavicle 1.19271e-014 -1.86858e-014
rhumerus -42.7077 10.779 -87.7448
rradius 33.1833
rwrist 16.5422
rhand -0.652015 -50.1927
rfingers 7.12502
rthumb 24.9657 -78.5817
lclavicle 1.19271e-014 -1.86858e-014
lhumerus -51.423 8.71387 75.129
lradius 33.7654
lwrist -20.6074
lhand -3.35651 -26.5617
lfingers 7.12502
lthumb 22.3718 2.16293
rfemur 21.1647 8.6924 27.5383
rtibia 17.6916
rfoot 2.44208 -8.43977
rtoes -10.0925
lfemur -16.9369 -20.6795 -20.0545
ltibia 20.7684
lfoot -23.4298 31.3369
ltoes 25.3221
2189
root 9.63694 15.5707 -23.3189 -1.25215 -14.6233 -1.75325
lowerback 4.08701 1.74757 6.00831
upperback -6.45541 2.91059 0.815139
thorax -8.8844 1.0414 -2.82908
lowerneck -4.61647 1.91643 -1.78544
upperneck 8.82518 2.47365 2.71805
head 3.62023 1.28055 1.32314
rclavicle -6.26172e-015 -3.18055e-015
rhumerus -42.9528 10.4804 -87.4511
rradius 33.2899
rwrist 16.4316
rhand -0.667868 -49.7655
rfingers 7.12502
rthumb 24.9505 -78.1566
lclavicle -6.26172e-015 -3.18055e-015
lhumerus -51.469 8.37546 75.3696
lradius 34.1611
lwrist -20.285
lhand -2.58417 -25.3776
lfingers 7.12502
lthumb 23.113 3.25601
rfemur 20.5192 8.21885 27.2011
rtibia 19.3026
rfoot 3.57264 -7.73694
rtoes -8.55524
lfemur -16.3209 -19.8502 -20.5411
ltibia 20.4978
lfoot -21.8163 30.8425
ltoes 23.3531
2190
root 9.65326 15.5818 -23.2019 -1.44823 -14.5802 -1.62679
lowerback 4.27647 1.68249 5.84342
upperback -6.54631 2.83402 0.894751
thorax -9.11399 1.00865 -2.65382
lowerneck -4.65526 1.909 -2.00459
upperneck 9.13305 2.4648 2.8597
head 3.73284 1.27477 1.4153
rclavicle -8.54774e-015 1.70955e-014
rhumerus -43.3405 10.476 -87.1641
rradius 33.3627
rwrist 16.1139
rhand -1.09006 -49.2289
rfingers 7.12502
rthumb 24.5459 -77.6756
lclavicle -8.54774e-015 1.70955e-014
lhumerus -51.6444 8.23987 75.6903
lradius 34.4994
lwrist -19.6742
lhand -1.54149 -24.0952
lfingers 7.12502
lthumb 24.1131 4.40948
rfemur 19.9904 7.87043 26.6606
rtibia 20.877
rfoot 4.52117 -6.99543
rtoes -8.07235
lfemur -15.5182 -19.5047 -21.147
ltibia 20.2394
lfoot -21.5743 30.5567
ltoes 23.5892
2191
root 9.67057 15.5936 -23.0866 -1.60146 -14.5307 -1.39152
lowerback 4.14926 1.65003 5.52644
upperback -6.5692 2.76126 0.984627
thorax -9.08483 0.999319 -2.36937
lowerneck -4.4407 1.92466 -2.26895
upperneck 9.21675 2.49305 2.96369
head 3.71609 1.2828 1.49558
rclavicle 2.57426e-014 2.26615e-014
rhumerus -43.7609 10.6265 -86.8773
rradius 33.5819
rwrist 15.5922
rhand -0.757977 -49.1795
rfingers 7.12502
rthumb 24.8642 -77.5826
lclavicle 2.57426e-014 2.26615e-014
lhumerus -51.5477 8.12815 76.1008
lradius 34.6412
lwrist -19.0874
lhand -1.44162 -25.4024
lfingers 7.12502
lthumb 24.2089 3.08961
rfemur 19.4196 7.54074 25.9806
rtibia 22.4254
rfoot 5.43682 -6.29324
rtoes -6.22331
lfemur -14.8219 -19.5326 -21.7998
ltibia 20.0417
lfoot -21.8958 30.4287
ltoes 24.1421
